<svg width="32.000000" height="32.000000" viewBox="0 0 32 32" fill="none" xmlns="http://www.w3.org/2000/svg" xmlns:xlink="http://www.w3.org/1999/xlink">
	<desc>
			Created with Pixso.
	</desc>
	<defs>
		<clipPath id="clip1_58">
			<rect id="Frame" rx="0.000000" width="31.000000" height="31.000000" transform="translate(0.500000 0.500000)" fill="white" fill-opacity="0"/>
		</clipPath>
	</defs>
	<rect id="Frame" rx="0.000000" width="31.000000" height="31.000000" transform="translate(0.500000 0.500000)" fill="#FFFFFF" fill-opacity="0"/>
	<g clip-path="url(#clip1_58)">
		<path id="Vector" d="M32 16C32 7.16 24.83 0 16 0C7.16 0 0 7.16 0 16C0 23.98 5.85 30.6 13.5 31.8L13.5 20.62L9.43 20.62L9.43 16L13.5 16L13.5 12.47C13.5 8.46 15.88 6.25 19.54 6.25C21.29 6.25 23.12 6.56 23.12 6.56L23.12 10.5L21.1 10.5C19.12 10.5 18.5 11.73 18.5 13L18.5 16L22.93 16L22.22 20.62L18.5 20.62L18.5 31.8C26.14 30.6 32 23.98 32 16Z" fill="#1877F2" fill-opacity="1.000000" fill-rule="nonzero"/>
		<path id="Vector" d="M22.22 20.62L22.93 16L18.49 16L18.49 13C18.49 11.73 19.11 10.5 21.1 10.5L23.12 10.5L23.12 6.56C23.12 6.56 21.29 6.25 19.54 6.25C15.88 6.25 13.49 8.46 13.49 12.47L13.49 16L9.43 16L9.43 20.62L13.49 20.62L13.49 31.8C15.15 32.06 16.84 32.06 18.49 31.8L18.49 20.62L22.22 20.62Z" fill="#FFFFFF" fill-opacity="1.000000" fill-rule="nonzero"/>
	</g>
</svg>
