<svg width="32.000000" height="32.000000" viewBox="0 0 32 32" fill="none" xmlns="http://www.w3.org/2000/svg" xmlns:xlink="http://www.w3.org/1999/xlink">
	<desc>
			Created with Pixso.
	</desc>
	<defs>
		<clipPath id="clip1_75">
			<rect id="Frame" rx="0.000000" width="31.000000" height="31.000000" transform="translate(0.500000 0.500000)" fill="white" fill-opacity="0"/>
		</clipPath>
	</defs>
	<rect id="Frame" rx="0.000000" width="31.000000" height="31.000000" transform="translate(0.500000 0.500000)" fill="#FFFFFF" fill-opacity="0"/>
	<g clip-path="url(#clip1_75)">
		<path id="Vector" d="M16 0.24C9.42 0.24 7.5 0.25 7.12 0.28C5.77 0.39 4.93 0.6 4.02 1.06C3.31 1.41 2.75 1.81 2.21 2.38C1.21 3.42 0.6 4.7 0.38 6.22C0.27 6.95 0.24 7.1 0.24 10.87C0.23 12.12 0.24 13.77 0.24 15.99C0.24 22.56 0.24 24.49 0.27 24.86C0.38 26.17 0.59 27 1.03 27.9C1.86 29.63 3.45 30.93 5.33 31.42C5.98 31.59 6.7 31.68 7.62 31.72C8.01 31.74 11.99 31.75 15.97 31.75C19.95 31.75 23.93 31.75 24.31 31.73C25.37 31.68 25.99 31.59 26.68 31.42C28.57 30.93 30.13 29.65 30.98 27.89C31.41 27.01 31.63 26.15 31.72 24.91C31.75 24.64 31.75 20.31 31.75 15.98C31.75 11.66 31.75 7.34 31.72 7.07C31.62 5.8 31.41 4.95 30.97 4.05C30.6 3.32 30.2 2.77 29.62 2.2C28.57 1.21 27.3 0.6 25.78 0.38C25.04 0.28 24.9 0.25 21.13 0.24L16 0.24Z" fill="#15191E" fill-opacity="1.000000" fill-rule="nonzero"/>
		<path id="Vector" d="M16.74 11.73L5.57 11.73L5.57 23.78L8.68 23.78L8.68 19.86L14.64 19.86L17.35 23.78L20.83 23.78L17.84 19.84C18.77 19.7 19.44 19.35 19.85 18.81C20.26 18.27 20.46 17.4 20.46 16.24L20.46 15.34C20.46 14.65 20.39 14.11 20.26 13.7C20.13 13.28 19.9 12.92 19.59 12.59C19.25 12.29 18.88 12.07 18.43 11.93C17.99 11.8 17.43 11.73 16.74 11.73ZM16.24 17.2L8.68 17.2L8.68 14.38L16.24 14.38C16.66 14.38 16.96 14.46 17.11 14.58C17.26 14.71 17.35 14.94 17.35 15.29L17.35 16.3C17.35 16.66 17.26 16.89 17.11 17.02C16.96 17.15 16.66 17.2 16.24 17.2Z" fill="#FFFFFF" fill-opacity="1.000000" fill-rule="nonzero"/>
		<path id="Vector" d="M24.6 11.13C25.76 11.13 26.7 10.18 26.7 9.02C26.7 7.85 25.76 6.91 24.6 6.91C23.43 6.91 22.49 7.85 22.49 9.02C22.49 10.18 23.43 11.13 24.6 11.13Z" fill="#F41240" fill-opacity="1.000000" fill-rule="nonzero"/>
	</g>
</svg>
