<svg width="32.000000" height="32.000000" viewBox="0 0 32 32" fill="none" xmlns="http://www.w3.org/2000/svg" xmlns:xlink="http://www.w3.org/1999/xlink">
	<desc>
			Created with Pixso.
	</desc>
	<defs>
		<clipPath id="clip1_37">
			<rect id="Frame" rx="0.000000" width="31.000000" height="31.000000" transform="translate(0.500000 0.500000)" fill="white" fill-opacity="0"/>
		</clipPath>
	</defs>
	<rect id="Frame" rx="0.000000" width="31.000000" height="31.000000" transform="translate(0.500000 0.500000)" fill="#FFFFFF" fill-opacity="0"/>
	<g clip-path="url(#clip1_37)">
		<path id="Vector" d="M2.66 0L29.33 0C30.8 0 32 1.19 32 2.66L32 29.33C32 30.8 30.8 32 29.33 32L2.66 32C1.19 32 0 30.8 0 29.33L0 2.66C0 1.19 1.19 0 2.66 0Z" fill="#000000" fill-opacity="1.000000" fill-rule="evenodd"/>
		<path id="Vector" d="M13.6 14.1L13.6 13.28C13.32 13.24 13.03 13.22 12.73 13.22C9.18 13.21 6.29 16.1 6.29 19.66C6.29 21.84 7.38 23.77 9.04 24.94C7.97 23.79 7.31 22.24 7.31 20.55C7.31 17.04 10.12 14.18 13.6 14.1Z" fill="#25F4EE" fill-opacity="1.000000" fill-rule="nonzero"/>
		<path id="Vector" d="M13.76 23.49C15.34 23.49 16.64 22.23 16.69 20.66L16.7 6.62L19.26 6.62C19.21 6.33 19.18 6.03 19.18 5.73L15.68 5.73L15.68 19.77C15.62 21.34 14.32 22.6 12.74 22.6C12.25 22.6 11.79 22.48 11.37 22.26C11.9 23 12.77 23.49 13.76 23.49Z" fill="#25F4EE" fill-opacity="1.000000" fill-rule="nonzero"/>
		<path id="Vector" d="M24.05 11.38L24.05 10.6C23.07 10.6 22.16 10.32 21.39 9.81C22.08 10.6 23 11.16 24.05 11.38Z" fill="#25F4EE" fill-opacity="1.000000" fill-rule="nonzero"/>
		<path id="Vector" d="M21.4 9.81C20.65 8.96 20.2 7.84 20.2 6.62L19.26 6.62C19.5 7.96 20.3 9.1 21.4 9.81Z" fill="#FE2C55" fill-opacity="1.000000" fill-rule="nonzero"/>
		<path id="Vector" d="M12.74 16.71C11.12 16.71 9.8 18.03 9.8 19.65C9.8 20.78 10.44 21.77 11.37 22.26C11.03 21.78 10.82 21.19 10.82 20.54C10.82 18.92 12.14 17.6 13.76 17.6C14.06 17.6 14.35 17.65 14.63 17.74L14.63 14.16C14.34 14.12 14.05 14.1 13.76 14.1C13.71 14.1 13.66 14.1 13.61 14.1L13.61 16.85C13.33 16.76 13.04 16.71 12.74 16.71Z" fill="#FE2C55" fill-opacity="1.000000" fill-rule="nonzero"/>
		<path id="Vector" d="M24.05 11.38L24.05 14.1C22.23 14.1 20.55 13.52 19.18 12.54L19.18 19.66C19.18 23.21 16.29 26.11 12.74 26.11C11.37 26.11 10.09 25.67 9.04 24.94C10.22 26.2 11.9 27 13.76 27C17.31 27 20.2 24.1 20.2 20.55L20.2 13.43C21.57 14.41 23.25 14.99 25.07 14.99L25.07 11.49C24.71 11.49 24.37 11.46 24.05 11.38Z" fill="#FE2C55" fill-opacity="1.000000" fill-rule="nonzero"/>
		<path id="Vector" d="M19.18 19.66L19.18 12.54C20.55 13.52 22.23 14.1 24.05 14.1L24.05 11.39C23 11.16 22.08 10.6 21.4 9.81C20.3 9.1 19.51 7.96 19.26 6.62L16.7 6.62L16.69 20.66C16.64 22.23 15.34 23.49 13.76 23.49C12.77 23.49 11.91 23 11.37 22.27C10.43 21.77 9.79 20.79 9.79 19.66C9.79 18.04 11.11 16.72 12.73 16.72C13.03 16.72 13.33 16.77 13.6 16.85L13.6 14.11C10.12 14.19 7.32 17.04 7.32 20.55C7.32 22.24 7.97 23.78 9.05 24.94C10.09 25.67 11.37 26.11 12.74 26.11C16.29 26.11 19.18 23.21 19.18 19.66Z" fill="#FFFFFF" fill-opacity="1.000000" fill-rule="nonzero"/>
	</g>
</svg>
