<svg width="38.257812" height="31.374512" viewBox="0 0 38.2578 31.3745" fill="none" xmlns="http://www.w3.org/2000/svg" xmlns:xlink="http://www.w3.org/1999/xlink">
	<desc>
			Created with Pixso.
	</desc>
	<defs/>
	<path id="Vector" d="M34.34 7.81C34.36 8.15 34.36 8.49 34.36 8.83C34.36 19.3 26.46 31.37 12.03 31.37L12.03 31.36C7.76 31.37 3.59 30.14 0 27.81C0.62 27.89 1.24 27.92 1.86 27.93C5.4 27.93 8.83 26.73 11.61 24.53C8.25 24.46 5.31 22.25 4.28 19.03C5.45 19.26 6.67 19.21 7.82 18.89C4.16 18.14 1.53 14.9 1.53 11.13C1.53 11.09 1.53 11.06 1.53 11.03C2.62 11.64 3.84 11.98 5.09 12.02C1.64 9.69 0.58 5.06 2.66 1.44C6.64 6.39 12.52 9.4 18.84 9.72C18.2 6.96 19.07 4.08 21.11 2.15C24.27 -0.85 29.24 -0.7 32.21 2.49C33.97 2.14 35.65 1.49 37.2 0.57C36.61 2.4 35.38 3.96 33.75 4.95C35.3 4.76 36.82 4.34 38.25 3.7C37.2 5.3 35.87 6.68 34.34 7.81Z" fill="#1D9BF0" fill-opacity="1.000000" fill-rule="nonzero"/>
</svg>
