<svg width="23.000488" height="23.181641" viewBox="0 0 23.0005 23.1816" fill="none" xmlns="http://www.w3.org/2000/svg" xmlns:xlink="http://www.w3.org/1999/xlink">
	<desc>
			Created with Pixso.
	</desc>
	<defs>
		<linearGradient x1="11.762814" y1="23.181641" x2="16.450808" y2="-4.120347" id="paint_linear_7_3638_0" gradientUnits="userSpaceOnUse">
			<stop stop-color="#00AEFF"/>
			<stop offset="1.000000" stop-color="#0076FF"/>
		</linearGradient>
	</defs>
	<path id="Combined-Shape" d="M21.54 6.94L18.91 4.24L15.56 5.85L13.61 5.85C13.13 5.85 12.66 5.77 12.21 5.62L4.42 2.95C3.77 2.73 3.07 3.07 2.85 3.72C2.8 3.85 2.78 3.98 2.78 4.12L2.78 11.98L0.52 13.07L1.11 18.85L4.02 21.88C4.8 22.68 5.9 23.18 7.11 23.18L18.66 23.18C21.06 23.18 23 21.24 23 18.85L23 10.18C23 8.89 22.43 7.74 21.54 6.94Z" fill="url(#paint_linear_7_3638_0)" fill-opacity="1.000000" fill-rule="evenodd"/>
	<path id="Rectangle" d="M4.33 20.29L15.88 20.29C18.27 20.29 20.21 18.35 20.21 15.96L20.21 7.29C20.21 4.9 18.27 2.96 15.88 2.96L10.82 2.96C10.35 2.96 9.87 2.88 9.42 2.73L7.14 1.95L1.63 0.06C0.99 -0.16 0.28 0.19 0.06 0.83C0.02 0.96 0 1.1 0 1.23L0 15.96C0 18.35 1.93 20.29 4.33 20.29Z" fill="#0076FF" fill-opacity="1.000000" fill-rule="evenodd"/>
	<path id="Oval" d="M7.21 11.63C7.21 12.42 6.57 13.07 5.77 13.07C4.97 13.07 4.33 12.42 4.33 11.63C4.33 10.83 4.97 10.18 5.77 10.18C6.57 10.18 7.21 10.83 7.21 11.63Z" fill="#FFFFFF" fill-opacity="1.000000" fill-rule="evenodd"/>
	<path id="Oval-Copy" d="M14.43 11.63C14.43 12.42 13.79 13.07 12.99 13.07C12.19 13.07 11.55 12.42 11.55 11.63C11.55 10.83 12.19 10.18 12.99 10.18C13.79 10.18 14.43 10.83 14.43 11.63Z" fill="#FFFFFF" fill-opacity="1.000000" fill-rule="evenodd"/>
</svg>
