<svg width="46.000000" height="26.000000" viewBox="0 0 46 26" fill="none" xmlns="http://www.w3.org/2000/svg" xmlns:xlink="http://www.w3.org/1999/xlink">
	<desc>
			Created with Pixso.
	</desc>
	<defs>
		<clipPath id="clip7_1332">
			<rect id="Frame 84" rx="3.500000" width="45.000000" height="25.000000" transform="translate(0.500000 0.500000)" fill="white" fill-opacity="0"/>
		</clipPath>
	</defs>
	<rect id="Frame 84" rx="3.500000" width="45.000000" height="25.000000" transform="translate(0.500000 0.500000)" fill="#F2F2F2" fill-opacity="1.000000"/>
	<g clip-path="url(#clip7_1332)">
		<path id="rect19" d="M19.05 5.92L26.92 5.92L26.92 20.07L19.05 20.07L19.05 5.92Z" fill="#FF5A00" fill-opacity="1.000000" fill-rule="evenodd"/>
		<path id="XMLID_330_" d="M19.57 13C19.57 10.12 20.92 7.57 23 5.92C21.47 4.72 19.54 4 17.44 4C12.47 4 8.44 8.02 8.44 13C8.44 17.97 12.47 22 17.44 22C19.54 22 21.47 21.27 23 20.07C20.92 18.44 19.57 15.87 19.57 13Z" fill="#EB001B" fill-opacity="1.000000" fill-rule="nonzero"/>
		<path id="path22" d="M37.55 13C37.55 17.97 33.52 22 28.55 22C26.45 22 24.52 21.27 23 20.07C25.1 18.42 26.42 15.87 26.42 13C26.42 10.12 25.07 7.57 23 5.92C24.52 4.72 26.44 4 28.54 4C33.52 4 37.55 8.05 37.55 13Z" fill="#F79E1B" fill-opacity="1.000000" fill-rule="nonzero"/>
	</g>
</svg>
