<svg width="46.000000" height="26.000000" viewBox="0 0 46 26" fill="none" xmlns="http://www.w3.org/2000/svg" xmlns:xlink="http://www.w3.org/1999/xlink">
	<desc>
			Created with Pixso.
	</desc>
	<defs>
		<clipPath id="clip7_1319">
			<rect id="Frame 86" rx="3.500000" width="45.000000" height="25.000000" transform="translate(0.500000 0.500000)" fill="white" fill-opacity="0"/>
		</clipPath>
		<linearGradient x1="41.329727" y1="10.600854" x2="30.636719" y2="10.600854" id="paint_linear_7_1315_0" gradientUnits="userSpaceOnUse">
			<stop stop-color="#1F5CD7"/>
			<stop offset="1.000000" stop-color="#02AEFF"/>
		</linearGradient>
	</defs>
	<rect id="Frame 86" rx="3.500000" width="45.000000" height="25.000000" transform="translate(0.500000 0.500000)" fill="#F2F2F2" fill-opacity="1.000000"/>
	<g clip-path="url(#clip7_1319)">
		<path id="Combined-Shape" d="M8.06 8C8.38 7.99 9.36 7.91 9.77 9.3C10.05 10.24 10.49 11.77 11.1 13.9L11.34 13.9C11.99 11.66 12.44 10.12 12.68 9.3C13.1 7.89 14.14 8 14.56 8L17.77 8L17.77 18L14.5 18L14.5 12.1L14.28 12.1L12.45 18L9.99 18L8.16 12.1L7.94 12.1L7.94 18L4.66 18L4.66 8L8.06 8ZM22.48 8L22.48 13.89L22.74 13.89L24.96 9.04C25.39 8.08 26.31 8 26.31 8L29.48 8L29.48 18L26.14 18L26.14 12.1L25.87 12.1L23.7 16.95C23.27 17.91 22.3 18 22.3 18L19.13 18L19.13 8L22.48 8ZM41.04 12.75C40.57 14.07 39.11 15.02 37.49 15.02L33.98 15.02L33.98 18L30.8 18L30.8 12.75L41.04 12.75Z" fill="#0F754E" fill-opacity="1.000000" fill-rule="evenodd"/>
		<path id="path24" d="M37.64 8L30.63 8C30.8 10.22 32.72 12.13 34.7 12.13L41.26 12.13C41.64 10.28 40.34 8 37.64 8Z" fill="url(#paint_linear_7_1315_0)" fill-opacity="1.000000" fill-rule="evenodd"/>
	</g>
</svg>
