<svg width="46.000000" height="26.000000" viewBox="0 0 46 26" fill="none" xmlns="http://www.w3.org/2000/svg" xmlns:xlink="http://www.w3.org/1999/xlink">
	<desc>
			Created with Pixso.
	</desc>
	<defs>
		<clipPath id="clip7_1334">
			<rect id="Frame 87" rx="3.500000" width="45.000000" height="25.000000" transform="translate(0.500000 0.500000)" fill="white" fill-opacity="0"/>
		</clipPath>
	</defs>
	<rect id="Frame 87" rx="3.500000" width="45.000000" height="25.000000" transform="translate(0.500000 0.500000)" fill="#F2F2F2" fill-opacity="1.000000"/>
	<g clip-path="url(#clip7_1334)">
		<path id="Vector" d="M12.78 18.49C14.03 18.49 15.38 18.92 16.87 20.24C17.02 20.37 17.22 20.21 17.09 20.04C15.62 18.19 14.26 17.84 12.91 17.54C11.25 17.18 10.39 16.24 9.8 15.22C9.68 15.02 9.63 15.05 9.62 15.32C9.6 15.64 9.63 16.06 9.7 16.48C9.63 16.48 9.56 16.48 9.5 16.48C7.12 16.48 5.2 14.56 5.2 12.19C5.2 9.82 7.12 7.9 9.5 7.9C11.87 7.9 13.79 9.82 13.79 12.19C13.79 12.36 13.79 12.52 13.77 12.69C13.45 12.63 12.83 12.62 12.4 12.66C12.24 12.68 12.26 12.75 12.39 12.77C13.81 13.03 14.78 13.91 15 15.5C15.01 15.54 15.06 15.55 15.08 15.52C15.68 14.51 16 13.36 16 12.19C16 8.61 13.09 5.7 9.5 5.7C5.91 5.7 3 8.6 3 12.19C3 15.77 5.91 18.68 9.5 18.68C10.45 18.68 11.39 18.49 12.78 18.49ZM13.26 16.14C13.55 16.38 13.64 16.67 13.49 16.88C13.4 16.99 13.27 17.05 13.1 17.05C12.94 17.05 12.78 16.99 12.66 16.89C12.4 16.66 12.32 16.29 12.49 16.08C12.56 15.99 12.67 15.95 12.8 15.95C12.96 15.95 13.12 16.02 13.26 16.14ZM14.6 15.52C14.64 15.8 14.55 15.92 14.46 15.92C14.36 15.92 14.24 15.8 14.09 15.58C13.95 15.35 13.9 15.09 13.97 14.96C14.01 14.88 14.11 14.84 14.24 14.89C14.48 14.98 14.57 15.35 14.6 15.52ZM23.61 14.03L22.86 13.13C22.84 13.11 22.83 13.08 22.83 13.06C22.83 13.03 22.83 13 22.84 12.98C22.85 12.95 22.87 12.93 22.9 12.92C22.92 12.9 22.95 12.89 22.97 12.89L24.54 12.89C24.62 12.67 24.66 12.43 24.66 12.19C24.66 11.06 23.82 10.09 22.66 10.09C21.51 10.09 20.67 11.06 20.67 12.19C20.67 13.32 21.51 14.27 22.66 14.27C23.01 14.27 23.33 14.18 23.61 14.03ZM27 15.55C27.08 15.64 27.02 15.79 26.89 15.79L25.18 15.79C25.15 15.79 25.12 15.78 25.08 15.76C25.05 15.75 25.03 15.73 25 15.7L24.71 15.35C24.1 15.75 23.39 15.96 22.66 15.96C20.58 15.96 18.89 14.27 18.89 12.19C18.89 10.11 20.58 8.42 22.66 8.42C24.75 8.42 26.44 10.11 26.44 12.19C26.44 12.94 26.22 13.64 25.84 14.22L27 15.55ZM42.81 8.59L41.41 8.59C41.36 8.59 41.32 8.61 41.28 8.65C41.25 8.68 41.23 8.73 41.23 8.78L41.23 15.6C41.23 15.7 41.31 15.79 41.41 15.79L42.81 15.79C42.91 15.79 43 15.7 43 15.6L43 8.78C43 8.73 42.98 8.68 42.94 8.65C42.91 8.61 42.86 8.59 42.81 8.59ZM40.46 8.59L38.9 8.59C38.86 8.59 38.82 8.61 38.79 8.63C38.75 8.65 38.73 8.69 38.72 8.72L37.48 12.75L36.12 8.72C36.11 8.68 36.09 8.65 36.06 8.63C36.02 8.6 35.99 8.59 35.95 8.59L34.86 8.59C34.82 8.59 34.78 8.6 34.75 8.63C34.72 8.65 34.69 8.68 34.68 8.72L33.32 12.75L32.09 8.72C32.07 8.68 32.05 8.65 32.02 8.63C31.99 8.6 31.95 8.59 31.91 8.59L30.35 8.59C30.32 8.59 30.29 8.6 30.26 8.61C30.24 8.63 30.21 8.65 30.2 8.67C30.18 8.69 30.17 8.72 30.16 8.75C30.16 8.78 30.16 8.81 30.17 8.83L32.46 15.66C32.49 15.74 32.56 15.79 32.64 15.79L33.88 15.79C33.96 15.79 34.03 15.74 34.06 15.66L35.4 11.67L36.75 15.66C36.77 15.74 36.84 15.79 36.92 15.79L38.16 15.79C38.24 15.79 38.32 15.74 38.34 15.66L40.64 8.83C40.64 8.81 40.65 8.78 40.64 8.75C40.64 8.72 40.63 8.69 40.61 8.67C40.59 8.65 40.57 8.63 40.54 8.61C40.52 8.6 40.49 8.59 40.46 8.59ZM29.58 8.78L29.58 15.6C29.58 15.7 29.5 15.79 29.39 15.79L28 15.79C27.95 15.79 27.9 15.77 27.87 15.73C27.83 15.7 27.81 15.65 27.81 15.6L27.81 8.78C27.81 8.68 27.89 8.59 28 8.59L29.39 8.59C29.5 8.59 29.58 8.68 29.58 8.78Z" fill="#FF8C00" fill-opacity="1.000000" fill-rule="evenodd"/>
	</g>
</svg>
