<svg width="46.000000" height="26.000000" viewBox="0 0 46 26" fill="none" xmlns="http://www.w3.org/2000/svg" xmlns:xlink="http://www.w3.org/1999/xlink">
	<desc>
			Created with Pixso.
	</desc>
	<defs>
		<clipPath id="clip7_1326">
			<rect id="Visa_Inc._logo 1" rx="0.000000" width="36.078449" height="11.000000" transform="translate(4.960938 7.500000)" fill="white" fill-opacity="0"/>
		</clipPath>
		<clipPath id="clip7_1327">
			<rect id="Frame 83" rx="3.500000" width="45.000000" height="25.000000" transform="translate(0.500000 0.500000)" fill="white" fill-opacity="0"/>
		</clipPath>
	</defs>
	<rect id="Frame 83" rx="3.500000" width="45.000000" height="25.000000" transform="translate(0.500000 0.500000)" fill="#F2F2F2" fill-opacity="1.000000"/>
	<g clip-path="url(#clip7_1327)">
		<rect id="Visa_Inc._logo 1" rx="0.000000" width="36.078449" height="11.000000" transform="translate(4.960938 7.500000)" fill="#FFFFFF" fill-opacity="0"/>
		<g clip-path="url(#clip7_1326)">
			<path id="polygon9" d="M20.52 18.82L17.52 18.82L19.4 7.21L22.4 7.21L20.52 18.82Z" fill="#00579F" fill-opacity="1.000000" fill-rule="nonzero"/>
			<path id="path11" d="M31.41 7.49C30.82 7.25 29.88 7 28.72 7C25.75 7 23.66 8.58 23.65 10.84C23.62 12.51 25.14 13.43 26.28 13.99C27.44 14.56 27.84 14.93 27.84 15.44C27.83 16.21 26.9 16.57 26.04 16.57C24.84 16.57 24.19 16.39 23.22 15.96L22.82 15.77L22.4 18.38C23.11 18.7 24.4 18.98 25.75 19C28.9 19 30.95 17.44 30.98 15.03C30.99 13.71 30.19 12.69 28.46 11.86C27.41 11.33 26.76 10.97 26.76 10.43C26.78 9.94 27.31 9.43 28.49 9.43C29.47 9.41 30.19 9.64 30.73 9.87L31 10L31.41 7.49Z" fill="#00579F" fill-opacity="1.000000" fill-rule="nonzero"/>
			<path id="path13" d="M35.4 14.71C35.65 14.04 36.6 11.46 36.6 11.46C36.59 11.48 36.85 10.78 37 10.34L37.21 11.35C37.21 11.35 37.78 14.13 37.9 14.71C37.43 14.71 36 14.71 35.4 14.71ZM39.11 7.21L36.79 7.21C36.07 7.21 35.53 7.42 35.22 8.17L30.76 18.82L33.91 18.82C33.91 18.82 34.43 17.39 34.54 17.08C34.88 17.08 37.95 17.08 38.39 17.08C38.48 17.49 38.75 18.82 38.75 18.82L41.53 18.82L39.11 7.21Z" fill="#00579F" fill-opacity="1.000000" fill-rule="nonzero"/>
			<path id="path15" d="M15.01 7.21L12.07 15.13L11.75 13.52C11.2 11.67 9.5 9.65 7.6 8.65L10.29 18.81L13.47 18.81L18.19 7.21L15.01 7.21Z" fill="#00579F" fill-opacity="1.000000" fill-rule="nonzero"/>
			<path id="path17" d="M9.34 7.21L4.51 7.21L4.46 7.44C8.23 8.4 10.72 10.73 11.75 13.52L10.7 8.18C10.52 7.44 9.99 7.23 9.34 7.21Z" fill="#FAA61A" fill-opacity="1.000000" fill-rule="nonzero"/>
		</g>
	</g>
</svg>
