<svg width="14.776855" height="14.095215" viewBox="0 0 14.7769 14.0952" fill="none" xmlns="http://www.w3.org/2000/svg" xmlns:xlink="http://www.w3.org/1999/xlink">
	<desc>
			Created with Pixso.
	</desc>
	<defs/>
	<path id="Vector" d="M14.75 5.35C14.73 5.27 14.68 5.2 14.62 5.15C14.56 5.1 14.48 5.06 14.4 5.05L9.82 4.39L7.77 0.24C7.74 0.16 7.68 0.1 7.61 0.06C7.54 0.02 7.46 0 7.38 0C7.3 0 7.22 0.02 7.16 0.06C7.09 0.1 7.03 0.16 7 0.24L4.95 4.39L0.37 5.05C0.29 5.06 0.21 5.1 0.15 5.15C0.09 5.2 0.04 5.27 0.02 5.35C-0.01 5.42 -0.01 5.51 0.01 5.58C0.03 5.66 0.07 5.73 0.13 5.79L3.44 9.02L2.66 13.58C2.64 13.66 2.65 13.75 2.68 13.82C2.71 13.9 2.76 13.96 2.83 14.01C2.89 14.06 2.97 14.08 3.05 14.09C3.13 14.1 3.21 14.08 3.29 14.04L7.38 11.89L11.48 14.04C11.55 14.08 11.63 14.1 11.71 14.09C11.79 14.08 11.87 14.06 11.94 14.01C12 13.96 12.05 13.89 12.08 13.82C12.11 13.75 12.12 13.66 12.11 13.58L11.33 9.02L14.64 5.79C14.7 5.73 14.74 5.66 14.76 5.58C14.78 5.51 14.78 5.42 14.75 5.35Z" fill="#F0C015" fill-opacity="1.000000" fill-rule="nonzero"/>
</svg>
